<mxfile host="app.diagrams.net" agent="Mozilla/5.0 (Windows NT 10.0; Win64; x64) AppleWebKit/537.36 (KHTML, like Gecko) Chrome/128.0.0.0 Safari/537.36 OPR/114.0.0.0" version="26.0.8">
  <diagram name="Seite-1" id="0tFSaFgLIQJUnRAH4D72">
    <mxGraphModel dx="1393" dy="788" grid="1" gridSize="10" guides="1" tooltips="1" connect="1" arrows="1" fold="1" page="1" pageScale="1" pageWidth="827" pageHeight="1169" math="0" shadow="0">
      <root>
        <mxCell id="0" />
        <mxCell id="1" parent="0" />
        <mxCell id="QtU2MP5qu0Tz3i0OQdQM-3" style="edgeStyle=orthogonalEdgeStyle;rounded=0;orthogonalLoop=1;jettySize=auto;html=1;exitX=1;exitY=0.5;exitDx=0;exitDy=0;entryX=0;entryY=0.5;entryDx=0;entryDy=0;" edge="1" parent="1" source="QtU2MP5qu0Tz3i0OQdQM-1" target="QtU2MP5qu0Tz3i0OQdQM-2">
          <mxGeometry relative="1" as="geometry" />
        </mxCell>
        <mxCell id="QtU2MP5qu0Tz3i0OQdQM-1" value="Game Concept" style="swimlane;whiteSpace=wrap;html=1;" vertex="1" parent="1">
          <mxGeometry x="314" y="585" width="200" height="200" as="geometry" />
        </mxCell>
        <mxCell id="QtU2MP5qu0Tz3i0OQdQM-5" style="edgeStyle=orthogonalEdgeStyle;rounded=0;orthogonalLoop=1;jettySize=auto;html=1;entryX=0;entryY=0.5;entryDx=0;entryDy=0;" edge="1" parent="1" source="QtU2MP5qu0Tz3i0OQdQM-2" target="QtU2MP5qu0Tz3i0OQdQM-4">
          <mxGeometry relative="1" as="geometry" />
        </mxCell>
        <mxCell id="QtU2MP5qu0Tz3i0OQdQM-2" value="NPCs" style="swimlane;whiteSpace=wrap;html=1;" vertex="1" parent="1">
          <mxGeometry x="620" y="585" width="200" height="200" as="geometry" />
        </mxCell>
        <mxCell id="QtU2MP5qu0Tz3i0OQdQM-7" style="edgeStyle=orthogonalEdgeStyle;rounded=0;orthogonalLoop=1;jettySize=auto;html=1;entryX=0;entryY=0.5;entryDx=0;entryDy=0;" edge="1" parent="1" source="QtU2MP5qu0Tz3i0OQdQM-4" target="QtU2MP5qu0Tz3i0OQdQM-6">
          <mxGeometry relative="1" as="geometry" />
        </mxCell>
        <mxCell id="QtU2MP5qu0Tz3i0OQdQM-4" value="Enemies" style="swimlane;whiteSpace=wrap;html=1;" vertex="1" parent="1">
          <mxGeometry x="930" y="585" width="200" height="200" as="geometry" />
        </mxCell>
        <mxCell id="QtU2MP5qu0Tz3i0OQdQM-6" value="Final Boss" style="swimlane;whiteSpace=wrap;html=1;" vertex="1" parent="1">
          <mxGeometry x="1280" y="585" width="200" height="200" as="geometry" />
        </mxCell>
      </root>
    </mxGraphModel>
  </diagram>
</mxfile>
